<?xml version="1.0" standalone="no"?>
<!DOCTYPE svg PUBLIC "-//W3C//DTD SVG 20010904//EN"
 "http://www.w3.org/TR/2001/REC-SVG-20010904/DTD/svg10.dtd">
<svg version="1.0" xmlns="http://www.w3.org/2000/svg"
 width="144.000000pt" height="144.000000pt" viewBox="0 0 144.000000 144.000000"
 preserveAspectRatio="xMidYMid meet">
<metadata>
Created by potrace 1.14, written by Peter Selinger 2001-2017
</metadata>
<g transform="translate(0.000000,144.000000) scale(0.100000,-0.100000)"
fill="#000000" stroke="none">
<path d="M575 1425 c-274 -60 -485 -264 -554 -535 -28 -110 -23 -276 12 -385
40 -123 119 -245 206 -318 85 -72 96 -79 151 -107 109 -55 193 -74 325 -74
141 -1 211 15 330 74 177 89 308 247 370 450 20 66 28 243 14 320 -15 79 -62
196 -107 263 -44 67 -159 187 -179 187 -7 0 -13 4 -13 9 0 13 -108 67 -195 97
-96 32 -261 41 -360 19z m245 -379 c14 -4 41 -8 60 -11 99 -12 309 -91 349
-130 24 -24 21 -73 -7 -95 -28 -23 -52 -21 -102 7 -38 22 -150 62 -190 69 -14
3 -41 9 -61 15 -76 20 -255 27 -394 15 -33 -2 -60 -5 -60 -6 0 -1 -11 -4 -25
-6 -14 -3 -41 -9 -62 -14 -46 -13 -85 1 -98 35 -11 30 1 70 27 83 23 12 113
32 178 39 28 3 52 7 54 9 6 5 303 -4 331 -10z m-50 -249 c14 -3 39 -8 55 -11
17 -2 45 -9 63 -15 17 -5 32 -7 32 -3 0 3 5 1 12 -6 7 -7 18 -12 26 -12 22 0
157 -68 176 -89 23 -25 12 -69 -21 -84 -21 -9 -35 -6 -92 22 -110 55 -164 72
-281 88 -89 13 -323 4 -351 -13 -23 -13 -74 -13 -95 1 -52 34 -9 95 76 110 19
3 48 8 65 11 16 3 31 7 33 8 5 6 275 -1 302 -7z m-25 -230 c60 -7 152 -36 225
-70 69 -32 90 -51 85 -76 -2 -9 -4 -19 -4 -23 -3 -21 -46 -16 -103 10 -74 35
-147 59 -203 68 -53 8 -198 12 -208 7 -5 -3 -32 -6 -60 -8 -29 -2 -72 -8 -95
-13 -38 -9 -46 -8 -63 9 -24 24 -24 41 1 64 11 10 20 15 20 12 0 -3 15 -1 33
4 17 5 59 12 92 15 33 3 61 7 63 8 3 4 169 -2 217 -7z"/>
</g>
</svg>
